<?xml version="1.0" standalone="no"?>
<!DOCTYPE svg PUBLIC "-//W3C//DTD SVG 20010904//EN"
 "http://www.w3.org/TR/2001/REC-SVG-20010904/DTD/svg10.dtd">
<svg version="1.0" xmlns="http://www.w3.org/2000/svg"
 width="700.000000pt" height="700.000000pt" viewBox="0 0 700.000000 700.000000"
 preserveAspectRatio="xMidYMid meet">
<metadata>
Created by potrace 1.14, written by Peter Selinger 2001-2017
</metadata>
<g transform="translate(0.000000,700.000000) scale(0.100000,-0.100000)"
fill="#000000" stroke="none">
<path d="M345 5430 c-165 -4 -307 -10 -316 -14 -25 -11 -30 -114 -23 -463 l7
-313 772 0 c424 0 1387 -3 2138 -7 l1367 -6 0 406 0 407 -1822 -2 c-1003 -1
-1958 -5 -2123 -8z"/>
<path d="M5077 5430 c-158 -4 -307 -11 -331 -14 l-43 -7 -6 -77 c-3 -42 -3
-215 0 -383 l6 -306 851 -6 c468 -3 921 -2 1006 1 l154 7 23 40 c43 75 125
280 188 470 77 230 84 259 58 270 -24 11 -1536 15 -1906 5z"/>
<path d="M110 3881 l-95 -6 -6 -185 c-4 -102 -7 -623 -8 -1157 l-1 -973 1000
0 1000 0 0 380 0 380 -667 0 -666 0 6 501 c3 276 8 504 11 507 4 3 277 7 609
9 331 2 621 6 645 9 l42 5 0 270 0 269 -887 -2 c-489 -1 -931 -4 -983 -7z"/>
<path d="M5688 3698 c-55 -183 -438 -1424 -584 -1891 -54 -172 -65 -220 -55
-230 9 -9 98 -13 345 -15 l333 -3 381 1149 c210 632 382 1154 382 1159 0 18
-88 23 -419 23 l-326 0 -57 -192z"/>
<path d="M3640 3095 l0 -775 -355 0 -355 0 0 165 0 165 -320 0 -320 0 0 -545
0 -545 994 0 994 0 6 22 c8 31 8 2168 0 2236 l-7 52 -318 0 -319 0 0 -775z"/>
</g>
</svg>
